<?xml version="1.0" encoding="UTF-8" standalone="no"?>
<svg
   width="254.88pt"
   height="120pt"
   viewBox="0 0 254.88 120"
   version="1.1"
   id="svg300"
   sodipodi:docname="rand-herm-matrix.svg"
   inkscape:version="1.2.2 (1:1.2.2+202212051550+b0a8486541)"
   xmlns:inkscape="http://www.inkscape.org/namespaces/inkscape"
   xmlns:sodipodi="http://sodipodi.sourceforge.net/DTD/sodipodi-0.dtd"
   xmlns="http://www.w3.org/2000/svg"
   xmlns:svg="http://www.w3.org/2000/svg"
   xmlns:rdf="http://www.w3.org/1999/02/22-rdf-syntax-ns#"
   xmlns:cc="http://creativecommons.org/ns#"
   xmlns:dc="http://purl.org/dc/elements/1.1/">
  <sodipodi:namedview
     id="namedview302"
     pagecolor="#ffffff"
     bordercolor="#666666"
     borderopacity="1.0"
     inkscape:showpageshadow="2"
     inkscape:pageopacity="0.0"
     inkscape:pagecheckerboard="0"
     inkscape:deskcolor="#d1d1d1"
     inkscape:document-units="pt"
     showgrid="false"
     inkscape:zoom="1.3020833"
     inkscape:cx="-12.672"
     inkscape:cy="210.81601"
     inkscape:window-width="1920"
     inkscape:window-height="1033"
     inkscape:window-x="0"
     inkscape:window-y="19"
     inkscape:window-maximized="1"
     inkscape:current-layer="svg300" />
  <metadata
     id="metadata2">
    <rdf:RDF>
      <cc:Work>
        <dc:type
           rdf:resource="http://purl.org/dc/dcmitype/StillImage" />
        <dc:date>2022-12-09T14:47:57.676237</dc:date>
        <dc:format>image/svg+xml</dc:format>
        <dc:creator>
          <cc:Agent>
            <dc:title>Matplotlib v3.5.3, https://matplotlib.org/</dc:title>
          </cc:Agent>
        </dc:creator>
      </cc:Work>
    </rdf:RDF>
  </metadata>
  <defs
     id="defs6">
    <style
       type="text/css"
       id="style4">*{stroke-linejoin: round; stroke-linecap: butt}</style>
  </defs>
  <g
     id="axes_1"
     transform="matrix(0.75,0,0,0.75,32.087181,-35.352822)">
    <g
       id="LineCollection_1">
      <path
         d="m 77.04,77.04 h 100.8"
         clip-path="url(#p13cf89e179)"
         style="fill:none;stroke:#999999;stroke-opacity:0.062447"
         id="path11" />
      <path
         d="m 77.04,88.24 h 100.8"
         clip-path="url(#p13cf89e179)"
         style="fill:none;stroke:#999999;stroke-opacity:0.062447"
         id="path13" />
      <path
         d="m 77.04,99.44 h 100.8"
         clip-path="url(#p13cf89e179)"
         style="fill:none;stroke:#999999;stroke-opacity:0.062447"
         id="path15" />
      <path
         d="m 77.04,110.64 h 100.8"
         clip-path="url(#p13cf89e179)"
         style="fill:none;stroke:#999999;stroke-opacity:0.062447"
         id="path17" />
      <path
         d="m 77.04,121.84 h 100.8"
         clip-path="url(#p13cf89e179)"
         style="fill:none;stroke:#999999;stroke-opacity:0.062447"
         id="path19" />
      <path
         d="m 77.04,133.04 h 100.8"
         clip-path="url(#p13cf89e179)"
         style="fill:none;stroke:#999999;stroke-opacity:0.062447"
         id="path21" />
      <path
         d="m 77.04,144.24 h 100.8"
         clip-path="url(#p13cf89e179)"
         style="fill:none;stroke:#999999;stroke-opacity:0.062447"
         id="path23" />
      <path
         d="m 77.04,155.44 h 100.8"
         clip-path="url(#p13cf89e179)"
         style="fill:none;stroke:#999999;stroke-opacity:0.062447"
         id="path25" />
      <path
         d="m 77.04,166.64 h 100.8"
         clip-path="url(#p13cf89e179)"
         style="fill:none;stroke:#999999;stroke-opacity:0.062447"
         id="path27" />
      <path
         d="m 77.04,177.84 h 100.8"
         clip-path="url(#p13cf89e179)"
         style="fill:none;stroke:#999999;stroke-opacity:0.062447"
         id="path29" />
      <path
         d="m 77.04,77.04 h 100.8"
         clip-path="url(#p13cf89e179)"
         style="fill:none;stroke:#999999;stroke-opacity:0.062447"
         id="path31" />
      <path
         d="m 77.04,88.24 h 100.8"
         clip-path="url(#p13cf89e179)"
         style="fill:none;stroke:#999999;stroke-opacity:0.062447"
         id="path33" />
      <path
         d="m 77.04,99.44 h 100.8"
         clip-path="url(#p13cf89e179)"
         style="fill:none;stroke:#999999;stroke-opacity:0.062447"
         id="path35" />
      <path
         d="m 77.04,110.64 h 100.8"
         clip-path="url(#p13cf89e179)"
         style="fill:none;stroke:#999999;stroke-opacity:0.062447"
         id="path37" />
      <path
         d="m 77.04,121.84 h 100.8"
         clip-path="url(#p13cf89e179)"
         style="fill:none;stroke:#999999;stroke-opacity:0.062447"
         id="path39" />
      <path
         d="m 77.04,133.04 h 100.8"
         clip-path="url(#p13cf89e179)"
         style="fill:none;stroke:#999999;stroke-opacity:0.062447"
         id="path41" />
      <path
         d="m 77.04,144.24 h 100.8"
         clip-path="url(#p13cf89e179)"
         style="fill:none;stroke:#999999;stroke-opacity:0.062447"
         id="path43" />
      <path
         d="m 77.04,155.44 h 100.8"
         clip-path="url(#p13cf89e179)"
         style="fill:none;stroke:#999999;stroke-opacity:0.062447"
         id="path45" />
      <path
         d="m 77.04,166.64 h 100.8"
         clip-path="url(#p13cf89e179)"
         style="fill:none;stroke:#999999;stroke-opacity:0.062447"
         id="path47" />
      <path
         d="m 77.04,177.84 h 100.8"
         clip-path="url(#p13cf89e179)"
         style="fill:none;stroke:#999999;stroke-opacity:0.062447"
         id="path49" />
      <path
         d="m 77.04,77.04 v 100.8"
         clip-path="url(#p13cf89e179)"
         style="fill:none;stroke:#999999;stroke-opacity:0.062447"
         id="path51" />
      <path
         d="m 88.24,77.04 v 100.8"
         clip-path="url(#p13cf89e179)"
         style="fill:none;stroke:#999999;stroke-opacity:0.062447"
         id="path53" />
      <path
         d="m 99.44,77.04 v 100.8"
         clip-path="url(#p13cf89e179)"
         style="fill:none;stroke:#999999;stroke-opacity:0.062447"
         id="path55" />
      <path
         d="m 110.64,77.04 v 100.8"
         clip-path="url(#p13cf89e179)"
         style="fill:none;stroke:#999999;stroke-opacity:0.062447"
         id="path57" />
      <path
         d="m 121.84,77.04 v 100.8"
         clip-path="url(#p13cf89e179)"
         style="fill:none;stroke:#999999;stroke-opacity:0.062447"
         id="path59" />
      <path
         d="m 133.04,77.04 v 100.8"
         clip-path="url(#p13cf89e179)"
         style="fill:none;stroke:#999999;stroke-opacity:0.062447"
         id="path61" />
      <path
         d="m 144.24,77.04 v 100.8"
         clip-path="url(#p13cf89e179)"
         style="fill:none;stroke:#999999;stroke-opacity:0.062447"
         id="path63" />
      <path
         d="m 155.44,77.04 v 100.8"
         clip-path="url(#p13cf89e179)"
         style="fill:none;stroke:#999999;stroke-opacity:0.062447"
         id="path65" />
      <path
         d="m 166.64,77.04 v 100.8"
         clip-path="url(#p13cf89e179)"
         style="fill:none;stroke:#999999;stroke-opacity:0.062447"
         id="path67" />
      <path
         d="m 177.84,77.04 v 100.8"
         clip-path="url(#p13cf89e179)"
         style="fill:none;stroke:#999999;stroke-opacity:0.062447"
         id="path69" />
      <path
         d="m 77.04,77.04 v 100.8"
         clip-path="url(#p13cf89e179)"
         style="fill:none;stroke:#999999;stroke-opacity:0.062447"
         id="path71" />
      <path
         d="m 88.24,77.04 v 100.8"
         clip-path="url(#p13cf89e179)"
         style="fill:none;stroke:#999999;stroke-opacity:0.062447"
         id="path73" />
      <path
         d="m 99.44,77.04 v 100.8"
         clip-path="url(#p13cf89e179)"
         style="fill:none;stroke:#999999;stroke-opacity:0.062447"
         id="path75" />
      <path
         d="m 110.64,77.04 v 100.8"
         clip-path="url(#p13cf89e179)"
         style="fill:none;stroke:#999999;stroke-opacity:0.062447"
         id="path77" />
      <path
         d="m 121.84,77.04 v 100.8"
         clip-path="url(#p13cf89e179)"
         style="fill:none;stroke:#999999;stroke-opacity:0.062447"
         id="path79" />
      <path
         d="m 133.04,77.04 v 100.8"
         clip-path="url(#p13cf89e179)"
         style="fill:none;stroke:#999999;stroke-opacity:0.062447"
         id="path81" />
      <path
         d="m 144.24,77.04 v 100.8"
         clip-path="url(#p13cf89e179)"
         style="fill:none;stroke:#999999;stroke-opacity:0.062447"
         id="path83" />
      <path
         d="m 155.44,77.04 v 100.8"
         clip-path="url(#p13cf89e179)"
         style="fill:none;stroke:#999999;stroke-opacity:0.062447"
         id="path85" />
      <path
         d="m 166.64,77.04 v 100.8"
         clip-path="url(#p13cf89e179)"
         style="fill:none;stroke:#999999;stroke-opacity:0.062447"
         id="path87" />
      <path
         d="m 177.84,77.04 v 100.8"
         clip-path="url(#p13cf89e179)"
         style="fill:none;stroke:#999999;stroke-opacity:0.062447"
         id="path89" />
    </g>
    <g
       id="PathCollection_1">
      <path
         d="m 177.84,182.7578 c 1.30422,0 2.55519,-0.51817 3.47741,-1.44039 0.92222,-0.92222 1.44039,-2.17319 1.44039,-3.47741 0,-1.30422 -0.51817,-2.55519 -1.44039,-3.47741 -0.92222,-0.92222 -2.17319,-1.44039 -3.47741,-1.44039 -1.30422,0 -2.55519,0.51817 -3.47741,1.44039 -0.92222,0.92222 -1.44039,2.17319 -1.44039,3.47741 0,1.30422 0.51817,2.55519 1.44039,3.47741 0.92222,0.92222 2.17319,1.44039 3.47741,1.44039 z"
         style="fill:#73cbff;fill-opacity:0.740827"
         id="path92" />
      <path
         d="m 166.64,182.19251 c 1.1543,0 2.26148,-0.45861 3.07769,-1.27482 0.81621,-0.81621 1.27482,-1.92339 1.27482,-3.07769 0,-1.1543 -0.45861,-2.26148 -1.27482,-3.07769 -0.81621,-0.81621 -1.92339,-1.27482 -3.07769,-1.27482 -1.1543,0 -2.26148,0.45861 -3.07769,1.27482 -0.81621,0.81621 -1.27482,1.92339 -1.27482,3.07769 0,1.1543 0.45861,2.26148 1.27482,3.07769 0.81621,0.81621 1.92339,1.27482 3.07769,1.27482 z"
         style="fill:#ffa9ed;fill-opacity:0.580303"
         id="path94" />
      <path
         d="m 155.44,181.46831 c 0.96224,0 1.8852,-0.3823 2.5656,-1.06271 0.68041,-0.6804 1.06271,-1.60336 1.06271,-2.5656 0,-0.96224 -0.3823,-1.8852 -1.06271,-2.5656 -0.6804,-0.68041 -1.60336,-1.06271 -2.5656,-1.06271 -0.96224,0 -1.8852,0.3823 -2.5656,1.06271 -0.68041,0.6804 -1.06271,1.60336 -1.06271,2.5656 0,0.96224 0.3823,1.8852 1.06271,2.5656 0.6804,0.68041 1.60336,1.06271 2.5656,1.06271 z"
         style="fill:#f3ffd6;fill-opacity:0.403259"
         id="path96" />
      <path
         d="m 144.24,182.77583 c 1.309,0 2.56456,-0.52007 3.49016,-1.44567 0.9256,-0.9256 1.44567,-2.18116 1.44567,-3.49016 0,-1.309 -0.52007,-2.56456 -1.44567,-3.49016 -0.9256,-0.9256 -2.18116,-1.44567 -3.49016,-1.44567 -1.309,0 -2.56456,0.52007 -3.49016,1.44567 -0.9256,0.9256 -1.44567,2.18116 -1.44567,3.49016 0,1.309 0.52007,2.56456 1.44567,3.49016 0.9256,0.9256 2.18116,1.44567 3.49016,1.44567 z"
         style="fill:#71d1ff;fill-opacity:0.746269"
         id="path98" />
      <path
         d="m 133.04,182.8949 c 1.34058,0 2.62643,-0.53261 3.57436,-1.48054 0.94793,-0.94793 1.48054,-2.23378 1.48054,-3.57436 0,-1.34058 -0.53261,-2.62643 -1.48054,-3.57436 -0.94793,-0.94793 -2.23378,-1.48054 -3.57436,-1.48054 -1.34058,0 -2.62643,0.53261 -3.57436,1.48054 -0.94793,0.94793 -1.48054,2.23378 -1.48054,3.57436 0,1.34058 0.53261,2.62643 1.48054,3.57436 0.94793,0.94793 2.23378,1.48054 3.57436,1.48054 z"
         style="fill:#6380ff;fill-opacity:0.782709"
         id="path100" />
      <path
         d="m 121.84,182.84878 c 1.32834,0 2.60246,-0.52776 3.54174,-1.46704 0.93928,-0.93928 1.46704,-2.2134 1.46704,-3.54174 0,-1.32834 -0.52776,-2.60246 -1.46704,-3.54174 -0.93928,-0.93928 -2.2134,-1.46704 -3.54174,-1.46704 -1.32834,0 -2.60246,0.52776 -3.54174,1.46704 -0.93928,0.93928 -1.46704,2.2134 -1.46704,3.54174 0,1.32834 0.52776,2.60246 1.46704,3.54174 0.93928,0.93928 2.2134,1.46704 3.54174,1.46704 z"
         style="fill:#68a1ff;fill-opacity:0.76849"
         id="path102" />
      <path
         d="m 110.64,182.69859 c 1.28851,0 2.52442,-0.51194 3.43554,-1.42305 0.91112,-0.91112 1.42305,-2.14703 1.42305,-3.43554 0,-1.28851 -0.51193,-2.52442 -1.42305,-3.43554 -0.91112,-0.91112 -2.14703,-1.42305 -3.43554,-1.42305 -1.28851,0 -2.52442,0.51193 -3.43554,1.42305 -0.91111,0.91112 -1.42305,2.14703 -1.42305,3.43554 0,1.28851 0.51194,2.52442 1.42305,3.43554 0.91112,0.91111 2.14703,1.42305 3.43554,1.42305 z"
         style="fill:#ff7ade;fill-opacity:0.723094"
         id="path104" />
      <path
         d="m 99.44,182.50584 c 1.2374,0 2.42428,-0.49162 3.29925,-1.36659 0.87497,-0.87497 1.36659,-2.06186 1.36659,-3.29925 0,-1.2374 -0.49162,-2.42428 -1.36659,-3.29925 -0.87497,-0.87497 -2.06185,-1.36659 -3.29925,-1.36659 -1.237395,0 -2.424277,0.49162 -3.299248,1.36659 -0.87497,0.87497 -1.366593,2.06185 -1.366593,3.29925 0,1.23739 0.491623,2.42428 1.366593,3.29925 0.874971,0.87497 2.061853,1.36659 3.299248,1.36659 z"
         style="fill:#9fff8e;fill-opacity:0.66686"
         id="path106" />
      <path
         d="m 88.24,182.75999 c 1.304796,0 2.556326,-0.5184 3.478956,-1.44103 0.92263,-0.92263 1.441031,-2.17416 1.441031,-3.47896 0,-1.3048 -0.518401,-2.55633 -1.441031,-3.47896 -0.92263,-0.92263 -2.17416,-1.44103 -3.478956,-1.44103 -1.304796,0 -2.556326,0.5184 -3.478956,1.44103 -0.92263,0.92263 -1.441031,2.17416 -1.441031,3.47896 0,1.3048 0.518401,2.55633 1.441031,3.47896 0.92263,0.92263 2.17416,1.44103 3.478956,1.44103 z"
         style="fill:#73ff84;fill-opacity:0.741486"
         id="path108" />
      <path
         d="m 77.04,182.121 c 1.135335,0 2.224322,-0.45107 3.027124,-1.25388 0.802803,-0.8028 1.253876,-1.89179 1.253876,-3.02712 0,-1.13534 -0.451073,-2.22432 -1.253876,-3.02712 C 79.264322,174.01007 78.175335,173.559 77.04,173.559 c -1.135335,0 -2.224322,0.45107 -3.027124,1.25388 -0.802803,0.8028 -1.253876,1.89178 -1.253876,3.02712 0,1.13533 0.451073,2.22432 1.253876,3.02712 0.802802,0.80281 1.891789,1.25388 3.027124,1.25388 z"
         style="fill:#d7ffaf;fill-opacity:0.561391"
         id="path110" />
      <path
         d="m 177.84,170.99251 c 1.1543,0 2.26148,-0.45861 3.07769,-1.27482 0.81621,-0.81621 1.27482,-1.92339 1.27482,-3.07769 0,-1.1543 -0.45861,-2.26148 -1.27482,-3.07769 -0.81621,-0.81621 -1.92339,-1.27482 -3.07769,-1.27482 -1.1543,0 -2.26148,0.45861 -3.07769,1.27482 -0.81621,0.81621 -1.27482,1.92339 -1.27482,3.07769 0,1.1543 0.45861,2.26148 1.27482,3.07769 0.81621,0.81621 1.92339,1.27482 3.07769,1.27482 z"
         style="fill:#d0ffa9;fill-opacity:0.580303"
         id="path112" />
      <path
         d="m 166.64,171.68922 c 1.33907,0 2.62347,-0.53202 3.57034,-1.47888 0.94686,-0.94687 1.47888,-2.23127 1.47888,-3.57034 0,-1.33907 -0.53202,-2.62347 -1.47888,-3.57034 -0.94687,-0.94686 -2.23127,-1.47888 -3.57034,-1.47888 -1.33907,0 -2.62347,0.53202 -3.57034,1.47888 -0.94686,0.94687 -1.47888,2.23127 -1.47888,3.57034 0,1.33907 0.53202,2.62347 1.47888,3.57034 0.94687,0.94686 2.23127,1.47888 3.57034,1.47888 z"
         style="fill:#ff9e63;fill-opacity:0.78095"
         id="path114" />
      <path
         d="m 155.44,171.06271 c 1.17292,0 2.29795,-0.46601 3.12733,-1.29538 0.82937,-0.82938 1.29538,-1.95441 1.29538,-3.12733 0,-1.17292 -0.46601,-2.29795 -1.29538,-3.12733 -0.82938,-0.82937 -1.95441,-1.29538 -3.12733,-1.29538 -1.17292,0 -2.29795,0.46601 -3.12733,1.29538 -0.82937,0.82938 -1.29538,1.95441 -1.29538,3.12733 0,1.17292 0.46601,2.29795 1.29538,3.12733 0.82938,0.82937 1.95441,1.29538 3.12733,1.29538 z"
         style="fill:#b2ffa3;fill-opacity:0.599171"
         id="path116" />
      <path
         d="m 144.24,171.23667 c 1.21905,0 2.38833,-0.48434 3.25033,-1.34634 0.862,-0.862 1.34634,-2.03128 1.34634,-3.25033 0,-1.21905 -0.48434,-2.38834 -1.34634,-3.25033 -0.862,-0.862 -2.03128,-1.34634 -3.25033,-1.34634 -1.21905,0 -2.38834,0.48434 -3.25033,1.34634 -0.862,0.86199 -1.34634,2.03128 -1.34634,3.25033 0,1.21905 0.48434,2.38833 1.34634,3.25033 0.86199,0.862 2.03128,1.34634 3.25033,1.34634 z"
         style="fill:#ffa594;fill-opacity:0.647233"
         id="path118" />
      <path
         d="m 133.04,171.61889 c 1.32042,0 2.58693,-0.5246 3.52061,-1.45828 0.93368,-0.93368 1.45828,-2.20019 1.45828,-3.52061 0,-1.32042 -0.5246,-2.58693 -1.45828,-3.52061 -0.93368,-0.93368 -2.20019,-1.45829 -3.52061,-1.45829 -1.32042,0 -2.58693,0.52461 -3.52061,1.45829 -0.93368,0.93368 -1.45829,2.20019 -1.45829,3.52061 0,1.32042 0.52461,2.58693 1.45829,3.52061 0.93368,0.93368 2.20019,1.45828 3.52061,1.45828 z"
         style="fill:#6cffc4;fill-opacity:0.759348"
         id="path120" />
      <path
         d="m 121.84,171.82512 c 1.37511,0 2.69408,-0.54634 3.66643,-1.51869 0.97235,-0.97235 1.51869,-2.29132 1.51869,-3.66643 0,-1.37511 -0.54634,-2.69408 -1.51869,-3.66643 -0.97235,-0.97235 -2.29132,-1.51869 -3.66643,-1.51869 -1.37511,0 -2.69408,0.54634 -3.66643,1.51869 -0.97235,0.97235 -1.51869,2.29132 -1.51869,3.66643 0,1.37511 0.54634,2.69408 1.51869,3.66643 0.97235,0.97235 2.29132,1.51869 3.66643,1.51869 z"
         style="fill:#52ff69;fill-opacity:0.823555"
         id="path122" />
      <path
         d="m 110.64,171.67044 c 1.33409,0 2.61371,-0.53004 3.55706,-1.47338 0.94334,-0.94335 1.47338,-2.22297 1.47338,-3.55706 0,-1.33409 -0.53004,-2.61371 -1.47338,-3.55706 -0.94335,-0.94334 -2.22297,-1.47338 -3.55706,-1.47338 -1.33409,0 -2.61371,0.53004 -3.55706,1.47338 -0.94334,0.94335 -1.47338,2.22297 -1.47338,3.55706 0,1.33409 0.53004,2.61371 1.47338,3.55706 0.94335,0.94334 2.22297,1.47338 3.55706,1.47338 z"
         style="fill:#ffb266;fill-opacity:0.775151"
         id="path124" />
      <path
         d="m 99.44,171.80626 c 1.37011,0 2.68428,-0.54435 3.6531,-1.51317 0.96881,-0.96881 1.51316,-2.28298 1.51316,-3.65309 0,-1.37011 -0.54435,-2.68428 -1.51316,-3.6531 -0.96882,-0.96881 -2.28299,-1.51316 -3.6531,-1.51316 -1.370107,0 -2.684283,0.54435 -3.653095,1.51316 -0.968812,0.96882 -1.513161,2.28299 -1.513161,3.6531 0,1.37011 0.544349,2.68428 1.513161,3.65309 0.968812,0.96882 2.282988,1.51317 3.653095,1.51317 z"
         style="fill:#55ffe8;fill-opacity:0.817573"
         id="path126" />
      <path
         d="m 88.24,171.61429 c 1.319197,0 2.58454,-0.52412 3.517353,-1.45694 0.932813,-0.93281 1.456935,-2.19815 1.456935,-3.51735 0,-1.3192 -0.524122,-2.58454 -1.456935,-3.51735 -0.932813,-0.93282 -2.198156,-1.45694 -3.517353,-1.45694 -1.319197,0 -2.58454,0.52412 -3.517353,1.45694 -0.932813,0.93281 -1.456935,2.19815 -1.456935,3.51735 0,1.3192 0.524122,2.58454 1.456935,3.51735 0.932813,0.93282 2.198156,1.45694 3.517353,1.45694 z"
         style="fill:#a06dff;fill-opacity:0.757943"
         id="path128" />
      <path
         d="m 77.04,171.83838 c 1.378626,0 2.700973,-0.54774 3.675808,-1.52257 0.974836,-0.97484 1.52257,-2.29718 1.52257,-3.67581 0,-1.37863 -0.547734,-2.70097 -1.52257,-3.67581 -0.974835,-0.97483 -2.297182,-1.52257 -3.675808,-1.52257 -1.378626,0 -2.700973,0.54774 -3.675808,1.52257 -0.974836,0.97484 -1.52257,2.29718 -1.52257,3.67581 0,1.37863 0.547734,2.70097 1.52257,3.67581 0.974835,0.97483 2.297182,1.52257 3.675808,1.52257 z"
         style="fill:#50ffd2;fill-opacity:0.827771"
         id="path130" />
      <path
         d="m 177.84,159.06831 c 0.96224,0 1.8852,-0.3823 2.5656,-1.06271 0.68041,-0.6804 1.06271,-1.60336 1.06271,-2.5656 0,-0.96224 -0.3823,-1.8852 -1.06271,-2.5656 -0.6804,-0.68041 -1.60336,-1.06271 -2.5656,-1.06271 -0.96224,0 -1.8852,0.3823 -2.5656,1.06271 -0.68041,0.6804 -1.06271,1.60336 -1.06271,2.5656 0,0.96224 0.3823,1.8852 1.06271,2.5656 0.6804,0.68041 1.60336,1.06271 2.5656,1.06271 z"
         style="fill:#ffd6ec;fill-opacity:0.403259"
         id="path132" />
      <path
         d="m 166.64,159.86271 c 1.17292,0 2.29795,-0.46601 3.12733,-1.29538 0.82937,-0.82938 1.29538,-1.95441 1.29538,-3.12733 0,-1.17292 -0.46601,-2.29795 -1.29538,-3.12733 -0.82938,-0.82937 -1.95441,-1.29538 -3.12733,-1.29538 -1.17292,0 -2.29795,0.46601 -3.12733,1.29538 -0.82937,0.82938 -1.29538,1.95441 -1.29538,3.12733 0,1.17292 0.46601,2.29795 1.29538,3.12733 0.82938,0.82937 1.95441,1.29538 3.12733,1.29538 z"
         style="fill:#f6a3ff;fill-opacity:0.599171"
         id="path134" />
      <path
         d="m 155.44,159.7256 c 1.13656,0 2.22671,-0.45155 3.03038,-1.25522 0.80367,-0.80367 1.25522,-1.89382 1.25522,-3.03038 0,-1.13656 -0.45155,-2.22671 -1.25522,-3.03038 -0.80367,-0.80367 -1.89382,-1.25522 -3.03038,-1.25522 -1.13656,0 -2.22671,0.45155 -3.03038,1.25522 -0.80367,0.80367 -1.25522,1.89382 -1.25522,3.03038 0,1.13656 0.45155,2.22671 1.25522,3.03038 0.80367,0.80367 1.89382,1.25522 3.03038,1.25522 z"
         style="fill:#aee1ff;fill-opacity:0.562599"
         id="path136" />
      <path
         d="m 144.24,160.53999 c 1.35253,0 2.64985,-0.53737 3.60624,-1.49375 0.95638,-0.95639 1.49375,-2.25371 1.49375,-3.60624 0,-1.35253 -0.53737,-2.64985 -1.49375,-3.60624 -0.95639,-0.95639 -2.25371,-1.49375 -3.60624,-1.49375 -1.35253,0 -2.64985,0.53736 -3.60624,1.49375 -0.95639,0.95639 -1.49375,2.25371 -1.49375,3.60624 0,1.35253 0.53736,2.64985 1.49375,3.60624 0.95639,0.95638 2.25371,1.49375 3.60624,1.49375 z"
         style="fill:#cdff5d;fill-opacity:0.796735"
         id="path138" />
      <path
         d="m 133.04,160.28801 c 1.28571,0 2.51893,-0.51082 3.42806,-1.41995 0.90913,-0.90913 1.41995,-2.14235 1.41995,-3.42806 0,-1.28571 -0.51082,-2.51893 -1.41995,-3.42806 -0.90913,-0.90913 -2.14235,-1.41995 -3.42806,-1.41995 -1.28571,0 -2.51893,0.51082 -3.42806,1.41995 -0.90913,0.90913 -1.41995,2.14235 -1.41995,3.42806 0,1.28571 0.51082,2.51893 1.41995,3.42806 0.90913,0.90913 2.14235,1.41995 3.42806,1.41995 z"
         style="fill:#a77bff;fill-opacity:0.719949"
         id="path140" />
      <path
         d="m 121.84,160.75683 c 1.41004,0 2.76252,-0.56022 3.75956,-1.55727 0.99705,-0.99704 1.55727,-2.34952 1.55727,-3.75956 0,-1.41004 -0.56022,-2.76252 -1.55727,-3.75957 -0.99704,-0.99704 -2.34952,-1.55726 -3.75956,-1.55726 -1.41004,0 -2.76252,0.56022 -3.75957,1.55726 -0.99704,0.99705 -1.55726,2.34953 -1.55726,3.75957 0,1.41004 0.56022,2.76252 1.55726,3.75956 0.99705,0.99705 2.34953,1.55727 3.75957,1.55727 z"
         style="fill:#40ff97;fill-opacity:0.865924"
         id="path142" />
      <path
         d="m 110.64,160.24647 c 1.27469,0 2.49734,-0.50644 3.39869,-1.40778 0.90134,-0.90135 1.40778,-2.124 1.40778,-3.39869 0,-1.27469 -0.50644,-2.49735 -1.40778,-3.39869 -0.90135,-0.90134 -2.124,-1.40778 -3.39869,-1.40778 -1.27469,0 -2.49734,0.50644 -3.39869,1.40778 -0.90134,0.90134 -1.40778,2.124 -1.40778,3.39869 0,1.27469 0.50644,2.49734 1.40778,3.39869 0.90135,0.90134 2.124,1.40778 3.39869,1.40778 z"
         style="fill:#7fffaf;fill-opacity:0.707664"
         id="path144" />
      <path
         d="m 99.44,160.40069 c 1.31559,0 2.57748,-0.52269 3.50774,-1.45295 0.93026,-0.93026 1.45295,-2.19215 1.45295,-3.50774 0,-1.31559 -0.52269,-2.57748 -1.45295,-3.50774 -0.93026,-0.93026 -2.19215,-1.45295 -3.50774,-1.45295 -1.315591,0 -2.577476,0.52269 -3.50774,1.45295 -0.930263,0.93026 -1.452953,2.19215 -1.452953,3.50774 0,1.31559 0.52269,2.57748 1.452953,3.50774 0.930264,0.93026 2.192149,1.45295 3.50774,1.45295 z"
         style="fill:#a9ff6e;fill-opacity:0.753806"
         id="path146" />
      <path
         d="m 88.24,158.67216 c 0.857178,0 1.679364,-0.34056 2.28548,-0.94668 0.606117,-0.60612 0.946677,-1.4283 0.946677,-2.28548 0,-0.85718 -0.34056,-1.67936 -0.946677,-2.28548 -0.606116,-0.60612 -1.428302,-0.94668 -2.28548,-0.94668 -0.857178,0 -1.679364,0.34056 -2.28548,0.94668 -0.606117,0.60612 -0.946677,1.4283 -0.946677,2.28548 0,0.85718 0.34056,1.67936 0.946677,2.28548 0.606116,0.60612 1.428302,0.94668 2.28548,0.94668 z"
         style="fill:#ffe8e5;fill-opacity:0.320007"
         id="path148" />
      <path
         d="m 77.04,160.87072 c 1.440245,0 2.821696,-0.57221 3.840103,-1.59062 1.018407,-1.0184 1.590622,-2.39986 1.590622,-3.8401 0,-1.44025 -0.572215,-2.8217 -1.590622,-3.8401 -1.018407,-1.01841 -2.399858,-1.59063 -3.840103,-1.59063 -1.440245,0 -2.821696,0.57222 -3.840103,1.59063 -1.018407,1.0184 -1.590622,2.39985 -1.590622,3.8401 0,1.44024 0.572215,2.8217 1.590622,3.8401 1.018407,1.01841 2.399858,1.59062 3.840103,1.59062 z"
         style="fill:#fff72f;fill-opacity:0.903421"
         id="path150" />
      <path
         d="m 177.84,149.17583 c 1.309,0 2.56456,-0.52007 3.49016,-1.44567 0.9256,-0.9256 1.44567,-2.18116 1.44567,-3.49016 0,-1.309 -0.52007,-2.56456 -1.44567,-3.49016 -0.9256,-0.9256 -2.18116,-1.44567 -3.49016,-1.44567 -1.309,0 -2.56456,0.52007 -3.49016,1.44567 -0.9256,0.9256 -1.44567,2.18116 -1.44567,3.49016 0,1.309 0.52007,2.56456 1.44567,3.49016 0.9256,0.9256 2.18116,1.44567 3.49016,1.44567 z"
         style="fill:#71c2ff;fill-opacity:0.746269"
         id="path152" />
      <path
         d="m 166.64,148.83667 c 1.21905,0 2.38833,-0.48434 3.25033,-1.34634 0.862,-0.862 1.34634,-2.03128 1.34634,-3.25033 0,-1.21905 -0.48434,-2.38834 -1.34634,-3.25033 -0.862,-0.862 -2.03128,-1.34634 -3.25033,-1.34634 -1.21905,0 -2.38834,0.48434 -3.25033,1.34634 -0.862,0.86199 -1.34634,2.03128 -1.34634,3.25033 0,1.21905 0.48434,2.38833 1.34634,3.25033 0.86199,0.862 2.03128,1.34634 3.25033,1.34634 z"
         style="fill:#ffd494;fill-opacity:0.647233"
         id="path154" />
      <path
         d="m 155.44,149.33999 c 1.35253,0 2.64985,-0.53737 3.60624,-1.49375 0.95638,-0.95639 1.49375,-2.25371 1.49375,-3.60624 0,-1.35253 -0.53737,-2.64985 -1.49375,-3.60624 -0.95639,-0.95639 -2.25371,-1.49375 -3.60624,-1.49375 -1.35253,0 -2.64985,0.53736 -3.60624,1.49375 -0.95639,0.95639 -1.49375,2.25371 -1.49375,3.60624 0,1.35253 0.53736,2.64985 1.49375,3.60624 0.95639,0.95638 2.25371,1.49375 3.60624,1.49375 z"
         style="fill:#ff5db7;fill-opacity:0.796735"
         id="path156" />
      <path
         d="m 144.24,147.87303 c 0.96349,0 1.88765,-0.3828 2.56894,-1.06409 0.68129,-0.68129 1.06409,-1.60545 1.06409,-2.56894 0,-0.96349 -0.3828,-1.88765 -1.06409,-2.56894 -0.68129,-0.68129 -1.60545,-1.06409 -2.56894,-1.06409 -0.96349,0 -1.88765,0.3828 -2.56894,1.06409 -0.68129,0.68129 -1.06409,1.60545 -1.06409,2.56894 0,0.96349 0.3828,1.88765 1.06409,2.56894 0.68129,0.68129 1.60545,1.06409 2.56894,1.06409 z"
         style="fill:#ffe5d5;fill-opacity:0.404308"
         id="path158" />
      <path
         d="m 133.04,148.08851 c 1.02064,0 1.99961,-0.4055 2.72131,-1.1272 0.7217,-0.7217 1.1272,-1.70067 1.1272,-2.72131 0,-1.02064 -0.4055,-1.99961 -1.1272,-2.72131 -0.7217,-0.7217 -1.70067,-1.1272 -2.72131,-1.1272 -1.02064,0 -1.99961,0.4055 -2.72131,1.1272 -0.7217,0.7217 -1.1272,1.70067 -1.1272,2.72131 0,1.02064 0.4055,1.99961 1.1272,2.72131 0.7217,0.7217 1.70067,1.1272 2.72131,1.1272 z"
         style="fill:#cbfff9;fill-opacity:0.453691"
         id="path160" />
      <path
         d="m 121.84,149.05498 c 1.27695,0 2.50177,-0.50733 3.40471,-1.41027 0.90294,-0.90294 1.41027,-2.12776 1.41027,-3.40471 0,-1.27695 -0.50733,-2.50177 -1.41027,-3.40471 -0.90294,-0.90294 -2.12776,-1.41028 -3.40471,-1.41028 -1.27695,0 -2.50177,0.50734 -3.40471,1.41028 -0.90294,0.90294 -1.41028,2.12776 -1.41028,3.40471 0,1.27695 0.50734,2.50177 1.41028,3.40471 0.90294,0.90294 2.12776,1.41027 3.40471,1.41027 z"
         style="fill:#7eeeff;fill-opacity:0.710174"
         id="path162" />
      <path
         d="m 110.64,148.07527 c 1.01712,0 1.99273,-0.40411 2.71195,-1.12333 0.71921,-0.71921 1.12332,-1.69482 1.12332,-2.71194 0,-1.01713 -0.40411,-1.99273 -1.12332,-2.71195 -0.71922,-0.71921 -1.69483,-1.12332 -2.71195,-1.12332 -1.01713,0 -1.99273,0.40411 -2.71194,1.12332 -0.71922,0.71922 -1.12333,1.69482 -1.12333,2.71195 0,1.01712 0.40411,1.99273 1.12333,2.71194 0.71921,0.71922 1.69481,1.12333 2.71194,1.12333 z"
         style="fill:#efffcb;fill-opacity:0.450574"
         id="path164" />
      <path
         d="m 99.44,149.28344 c 1.33754,0 2.62047,-0.53141 3.56625,-1.47719 0.94578,-0.94578 1.4772,-2.22871 1.4772,-3.56625 0,-1.33754 -0.53142,-2.62047 -1.4772,-3.56625 -0.94578,-0.94579 -2.22871,-1.4772 -3.56625,-1.4772 -1.337537,0 -2.620472,0.53141 -3.566254,1.4772 -0.945781,0.94578 -1.477191,2.22871 -1.477191,3.56625 0,1.33754 0.53141,2.62047 1.477191,3.56625 0.945782,0.94578 2.228717,1.47719 3.566254,1.47719 z"
         style="fill:#c7ff64;fill-opacity:0.779165"
         id="path166" />
      <path
         d="m 88.24,149.35999 c 1.357836,0 2.660242,-0.53948 3.620377,-1.49961 0.960135,-0.96014 1.49961,-2.26254 1.49961,-3.62038 0,-1.35784 -0.539475,-2.66024 -1.49961,-3.62038 -0.960135,-0.96013 -2.262541,-1.49961 -3.620377,-1.49961 -1.357836,0 -2.660242,0.53948 -3.620377,1.49961 -0.960135,0.96014 -1.49961,2.26254 -1.49961,3.62038 0,1.35784 0.539475,2.66024 1.49961,3.62038 0.960135,0.96013 2.262541,1.49961 3.620377,1.49961 z"
         style="fill:#5b9aff;fill-opacity:0.802994"
         id="path168" />
      <path
         d="m 77.04,147.81244 c 0.947422,0 1.856168,-0.37642 2.526097,-1.04634 0.669928,-0.66993 1.046343,-1.57868 1.046343,-2.5261 0,-0.94742 -0.376415,-1.85617 -1.046343,-2.5261 -0.669929,-0.66993 -1.578675,-1.04634 -2.526097,-1.04634 -0.947422,0 -1.856168,0.37641 -2.526097,1.04634 -0.669928,0.66993 -1.046343,1.57868 -1.046343,2.5261 0,0.94742 0.376415,1.85617 1.046343,2.5261 0.669929,0.66992 1.578675,1.04634 2.526097,1.04634 z"
         style="fill:#d8fbff;fill-opacity:0.390935"
         id="path170" />
      <path
         d="m 177.84,138.0949 c 1.34058,0 2.62643,-0.53261 3.57436,-1.48054 0.94793,-0.94793 1.48054,-2.23378 1.48054,-3.57436 0,-1.34058 -0.53261,-2.62643 -1.48054,-3.57436 -0.94793,-0.94793 -2.23378,-1.48054 -3.57436,-1.48054 -1.34058,0 -2.62643,0.53261 -3.57436,1.48054 -0.94793,0.94793 -1.48054,2.23378 -1.48054,3.57436 0,1.34058 0.53261,2.62643 1.48054,3.57436 0.94793,0.94793 2.23378,1.48054 3.57436,1.48054 z"
         style="fill:#63fff5;fill-opacity:0.782709"
         id="path172" />
      <path
         d="m 166.64,138.01889 c 1.32042,0 2.58693,-0.5246 3.52061,-1.45828 0.93368,-0.93368 1.45828,-2.20019 1.45828,-3.52061 0,-1.32042 -0.5246,-2.58693 -1.45828,-3.52061 -0.93368,-0.93368 -2.20019,-1.45829 -3.52061,-1.45829 -1.32042,0 -2.58693,0.52461 -3.52061,1.45829 -0.93368,0.93368 -1.45829,2.20019 -1.45829,3.52061 0,1.32042 0.52461,2.58693 1.45829,3.52061 0.93368,0.93368 2.20019,1.45828 3.52061,1.45828 z"
         style="fill:#836cff;fill-opacity:0.759348"
         id="path174" />
      <path
         d="m 155.44,137.88801 c 1.28571,0 2.51893,-0.51082 3.42806,-1.41995 0.90913,-0.90913 1.41995,-2.14235 1.41995,-3.42806 0,-1.28571 -0.51082,-2.51893 -1.41995,-3.42806 -0.90913,-0.90913 -2.14235,-1.41995 -3.42806,-1.41995 -1.28571,0 -2.51893,0.51082 -3.42806,1.41995 -0.90913,0.90913 -1.41995,2.14235 -1.41995,3.42806 0,1.28571 0.51082,2.51893 1.41995,3.42806 0.90913,0.90913 2.14235,1.41995 3.42806,1.41995 z"
         style="fill:#7bffb2;fill-opacity:0.719949"
         id="path176" />
      <path
         d="m 144.24,136.88851 c 1.02064,0 1.99961,-0.4055 2.72131,-1.1272 0.7217,-0.7217 1.1272,-1.70067 1.1272,-2.72131 0,-1.02064 -0.4055,-1.99961 -1.1272,-2.72131 -0.7217,-0.7217 -1.70067,-1.1272 -2.72131,-1.1272 -1.02064,0 -1.99961,0.4055 -2.72131,1.1272 -0.7217,0.7217 -1.1272,1.70067 -1.1272,2.72131 0,1.02064 0.4055,1.99961 1.1272,2.72131 0.7217,0.7217 1.70067,1.1272 2.72131,1.1272 z"
         style="fill:#cbd2ff;fill-opacity:0.453691"
         id="path178" />
      <path
         d="m 133.04,138.47446 c 1.44123,0 2.82363,-0.57261 3.84274,-1.59172 1.01911,-1.01911 1.59172,-2.40151 1.59172,-3.84274 0,-1.44124 -0.57261,-2.82364 -1.59172,-3.84274 -1.01911,-1.01911 -2.40151,-1.59172 -3.84274,-1.59172 -1.44124,0 -2.82364,0.57261 -3.84274,1.59172 -1.01911,1.0191 -1.59172,2.4015 -1.59172,3.84274 0,1.44123 0.57261,2.82363 1.59172,3.84274 1.0191,1.01911 2.4015,1.59172 3.84274,1.59172 z"
         style="fill:#2eb1ff;fill-opacity:0.904664"
         id="path180" />
      <path
         d="m 121.84,138.02405 c 1.32179,0 2.58961,-0.52515 3.52426,-1.45979 0.93464,-0.93465 1.45979,-2.20247 1.45979,-3.52426 0,-1.32179 -0.52515,-2.58961 -1.45979,-3.52426 -0.93465,-0.93464 -2.20247,-1.45979 -3.52426,-1.45979 -1.32179,0 -2.58961,0.52515 -3.52426,1.45979 -0.93464,0.93465 -1.45979,2.20247 -1.45979,3.52426 0,1.32179 0.52515,2.58961 1.45979,3.52426 0.93465,0.93464 2.20247,1.45979 3.52426,1.45979 z"
         style="fill:#f5ff6b;fill-opacity:0.760921"
         id="path182" />
      <path
         d="m 110.64,137.50394 c 1.18385,0 2.31937,-0.47035 3.15648,-1.30746 0.83711,-0.83711 1.30746,-1.97263 1.30746,-3.15648 0,-1.18385 -0.47035,-2.31937 -1.30746,-3.15648 -0.83711,-0.83711 -1.97263,-1.30746 -3.15648,-1.30746 -1.18385,0 -2.31937,0.47035 -3.15648,1.30746 -0.83711,0.83711 -1.30746,1.97263 -1.30746,3.15648 0,1.18385 0.47035,2.31937 1.30746,3.15648 0.83711,0.83711 1.97263,1.30746 3.15648,1.30746 z"
         style="fill:#a0fffb;fill-opacity:0.610395"
         id="path184" />
      <path
         d="m 99.44,137.66036 c 1.22533,0 2.40065,-0.48683 3.26709,-1.35327 0.86644,-0.86644 1.35327,-2.04176 1.35327,-3.26709 0,-1.22533 -0.48683,-2.40065 -1.35327,-3.26709 -0.86644,-0.86644 -2.04176,-1.35327 -3.26709,-1.35327 -1.225334,0 -2.400647,0.48683 -3.26709,1.35327 -0.866442,0.86644 -1.353272,2.04176 -1.353272,3.26709 0,1.22533 0.48683,2.40065 1.353272,3.26709 0.866443,0.86644 2.041756,1.35327 3.26709,1.35327 z"
         style="fill:#92ffac;fill-opacity:0.653923"
         id="path186" />
      <path
         d="m 88.24,138.28346 c 1.390582,0 2.724397,-0.55248 3.707687,-1.53577 0.98329,-0.98329 1.535774,-2.31711 1.535774,-3.70769 0,-1.39058 -0.552484,-2.7244 -1.535774,-3.70769 -0.98329,-0.98329 -2.317105,-1.53577 -3.707687,-1.53577 -1.390582,0 -2.724397,0.55248 -3.707687,1.53577 -0.98329,0.98329 -1.535774,2.31711 -1.535774,3.70769 0,1.39058 0.552484,2.7244 1.535774,3.70769 0.98329,0.98329 2.317105,1.53577 3.707687,1.53577 z"
         style="fill:#5fff4a;fill-opacity:0.842192"
         id="path188" />
      <path
         d="m 77.04,138.59757 c 1.473885,0 2.887603,-0.58558 3.929797,-1.62777 1.042195,-1.0422 1.627776,-2.45592 1.627776,-3.9298 0,-1.47389 -0.585581,-2.8876 -1.627776,-3.9298 -1.042194,-1.04219 -2.455912,-1.62777 -3.929797,-1.62777 -1.473885,0 -2.887603,0.58558 -3.929797,1.62777 -1.042195,1.0422 -1.627776,2.45591 -1.627776,3.9298 0,1.47388 0.585581,2.8876 1.627776,3.9298 1.042194,1.04219 2.455912,1.62777 3.929797,1.62777 z"
         style="fill:#ffce1b;fill-opacity:0.946117"
         id="path190" />
      <path
         d="m 177.84,126.84878 c 1.32834,0 2.60246,-0.52776 3.54174,-1.46704 0.93928,-0.93928 1.46704,-2.2134 1.46704,-3.54174 0,-1.32834 -0.52776,-2.60246 -1.46704,-3.54174 -0.93928,-0.93928 -2.2134,-1.46704 -3.54174,-1.46704 -1.32834,0 -2.60246,0.52776 -3.54174,1.46704 -0.93928,0.93928 -1.46704,2.2134 -1.46704,3.54174 0,1.32834 0.52776,2.60246 1.46704,3.54174 0.93928,0.93928 2.2134,1.46704 3.54174,1.46704 z"
         style="fill:#68ecff;fill-opacity:0.76849"
         id="path192" />
      <path
         d="m 166.64,127.02512 c 1.37511,0 2.69408,-0.54634 3.66643,-1.51869 0.97235,-0.97235 1.51869,-2.29132 1.51869,-3.66643 0,-1.37511 -0.54634,-2.69408 -1.51869,-3.66643 -0.97235,-0.97235 -2.29132,-1.51869 -3.66643,-1.51869 -1.37511,0 -2.69408,0.54634 -3.66643,1.51869 -0.97235,0.97235 -1.51869,2.29132 -1.51869,3.66643 0,1.37511 0.54634,2.69408 1.51869,3.66643 0.97235,0.97235 2.29132,1.51869 3.66643,1.51869 z"
         style="fill:#bc52ff;fill-opacity:0.823555"
         id="path194" />
      <path
         d="m 155.44,127.15683 c 1.41004,0 2.76252,-0.56022 3.75956,-1.55727 0.99705,-0.99704 1.55727,-2.34952 1.55727,-3.75956 0,-1.41004 -0.56022,-2.76252 -1.55727,-3.75957 -0.99704,-0.99704 -2.34952,-1.55726 -3.75956,-1.55726 -1.41004,0 -2.76252,0.56022 -3.75957,1.55726 -0.99704,0.99705 -1.55726,2.34953 -1.55726,3.75957 0,1.41004 0.56022,2.76252 1.55726,3.75956 0.99705,0.99705 2.34953,1.55727 3.75957,1.55727 z"
         style="fill:#7840ff;fill-opacity:0.865924"
         id="path196" />
      <path
         d="m 144.24,126.65498 c 1.27695,0 2.50177,-0.50733 3.40471,-1.41027 0.90294,-0.90294 1.41027,-2.12776 1.41027,-3.40471 0,-1.27695 -0.50733,-2.50177 -1.41027,-3.40471 -0.90294,-0.90294 -2.12776,-1.41028 -3.40471,-1.41028 -1.27695,0 -2.50177,0.50734 -3.40471,1.41028 -0.90294,0.90294 -1.41028,2.12776 -1.41028,3.40471 0,1.27695 0.50734,2.50177 1.41028,3.40471 0.90294,0.90294 2.12776,1.41027 3.40471,1.41027 z"
         style="fill:#7eb0ff;fill-opacity:0.710174"
         id="path198" />
      <path
         d="m 133.04,126.82405 c 1.32179,0 2.58961,-0.52515 3.52426,-1.45979 0.93464,-0.93465 1.45979,-2.20247 1.45979,-3.52426 0,-1.32179 -0.52515,-2.58961 -1.45979,-3.52426 -0.93465,-0.93464 -2.20247,-1.45979 -3.52426,-1.45979 -1.32179,0 -2.58961,0.52515 -3.52426,1.45979 -0.93464,0.93465 -1.45979,2.20247 -1.45979,3.52426 0,1.32179 0.52515,2.58961 1.45979,3.52426 0.93465,0.93464 2.20247,1.45979 3.52426,1.45979 z"
         style="fill:#ff6b9a;fill-opacity:0.760921"
         id="path200" />
      <path
         d="m 121.84,127.12419 c 1.40138,0 2.74556,-0.55678 3.73649,-1.5477 0.99092,-0.99093 1.5477,-2.33511 1.5477,-3.73649 0,-1.40138 -0.55678,-2.74556 -1.5477,-3.73648 -0.99093,-0.99093 -2.33511,-1.54771 -3.73649,-1.54771 -1.40138,0 -2.74556,0.55678 -3.73648,1.54771 -0.99093,0.99092 -1.54771,2.3351 -1.54771,3.73648 0,1.40138 0.55678,2.74556 1.54771,3.73649 0.99092,0.99092 2.3351,1.5477 3.73648,1.5477 z"
         style="fill:#44b9ff;fill-opacity:0.855325"
         id="path202" />
      <path
         d="m 110.64,127.55364 c 1.51527,0 2.96869,-0.60203 4.04015,-1.67349 1.07146,-1.07146 1.67349,-2.52488 1.67349,-4.04015 0,-1.51527 -0.60203,-2.96869 -1.67349,-4.04015 -1.07146,-1.07146 -2.52488,-1.67349 -4.04015,-1.67349 -1.51527,0 -2.96869,0.60203 -4.04015,1.67349 -1.07146,1.07146 -1.67349,2.52488 -1.67349,4.04015 0,1.51527 0.60203,2.96869 1.67349,4.04015 1.07146,1.07146 2.52488,1.67349 4.04015,1.67349 z"
         style="fill:#ff6d00"
         id="path204" />
      <path
         d="m 99.44,126.26289 c 1.17297,0 2.29805,-0.46602 3.12746,-1.29543 0.82941,-0.82941 1.29543,-1.9545 1.29543,-3.12746 0,-1.17296 -0.46602,-2.29805 -1.29543,-3.12746 -0.82941,-0.82941 -1.95449,-1.29543 -3.12746,-1.29543 -1.172965,0 -2.298046,0.46602 -3.127457,1.29543 -0.829411,0.82941 -1.295435,1.9545 -1.295435,3.12746 0,1.17296 0.466024,2.29805 1.295435,3.12746 0.829411,0.82941 1.954492,1.29543 3.127457,1.29543 z"
         style="fill:#ffc9a3;fill-opacity:0.599222"
         id="path206" />
      <path
         d="m 88.24,126.83697 c 1.325211,0 2.596323,-0.52652 3.533388,-1.46358 0.937066,-0.93707 1.463577,-2.20818 1.463577,-3.53339 0,-1.32521 -0.526511,-2.59632 -1.463577,-3.53339 -0.937065,-0.93706 -2.208177,-1.46357 -3.533388,-1.46357 -1.325211,0 -2.596323,0.52651 -3.533388,1.46357 -0.937066,0.93707 -1.463577,2.20818 -1.463577,3.53339 0,1.32521 0.526511,2.59632 1.463577,3.53339 0.937065,0.93706 2.208177,1.46358 3.533388,1.46358 z"
         style="fill:#ffd26a;fill-opacity:0.76487"
         id="path208" />
      <path
         d="m 77.04,127.50071 c 1.501238,0 2.941191,-0.59645 4.002726,-1.65798 1.061535,-1.06154 1.657983,-2.50149 1.657983,-4.00273 0,-1.50124 -0.596448,-2.94119 -1.657983,-4.00273 -1.061535,-1.06153 -2.501488,-1.65798 -4.002726,-1.65798 -1.501238,0 -2.941191,0.59645 -4.002726,1.65798 -1.061535,1.06154 -1.657983,2.50149 -1.657983,4.00273 0,1.50124 0.596448,2.94119 1.657983,4.00273 1.061535,1.06153 2.501488,1.65798 4.002726,1.65798 z"
         style="fill:#0bff09;fill-opacity:0.981559"
         id="path210" />
      <path
         d="m 177.84,115.49859 c 1.28851,0 2.52442,-0.51193 3.43554,-1.42305 0.91111,-0.91112 1.42305,-2.14703 1.42305,-3.43554 0,-1.28851 -0.51194,-2.52442 -1.42305,-3.43554 -0.91112,-0.91111 -2.14703,-1.42305 -3.43554,-1.42305 -1.28851,0 -2.52442,0.51194 -3.43554,1.42305 -0.91112,0.91112 -1.42305,2.14703 -1.42305,3.43554 0,1.28851 0.51193,2.52442 1.42305,3.43554 0.91112,0.91112 2.14703,1.42305 3.43554,1.42305 z"
         style="fill:#bcff7a;fill-opacity:0.723094"
         id="path212" />
      <path
         d="m 166.64,115.67044 c 1.33409,0 2.61371,-0.53004 3.55706,-1.47338 0.94334,-0.94335 1.47338,-2.22297 1.47338,-3.55706 0,-1.33409 -0.53004,-2.61371 -1.47338,-3.55706 -0.94335,-0.94334 -2.22297,-1.47338 -3.55706,-1.47338 -1.33409,0 -2.61371,0.53004 -3.55706,1.47338 -0.94334,0.94335 -1.47338,2.22297 -1.47338,3.55706 0,1.33409 0.53004,2.61371 1.47338,3.55706 0.94335,0.94334 2.22297,1.47338 3.55706,1.47338 z"
         style="fill:#ff8d66;fill-opacity:0.775151"
         id="path214" />
      <path
         d="m 155.44,115.44647 c 1.27469,0 2.49734,-0.50644 3.39869,-1.40778 0.90134,-0.90135 1.40778,-2.124 1.40778,-3.39869 0,-1.27469 -0.50644,-2.49734 -1.40778,-3.39869 -0.90135,-0.90134 -2.124,-1.40778 -3.39869,-1.40778 -1.27469,0 -2.49735,0.50644 -3.39869,1.40778 -0.90134,0.90135 -1.40778,2.124 -1.40778,3.39869 0,1.27469 0.50644,2.49734 1.40778,3.39869 0.90134,0.90134 2.124,1.40778 3.39869,1.40778 z"
         style="fill:#b07fff;fill-opacity:0.707664"
         id="path216" />
      <path
         d="m 144.24,114.47527 c 1.01712,0 1.99273,-0.40411 2.71194,-1.12332 0.71922,-0.71922 1.12333,-1.69483 1.12333,-2.71195 0,-1.01713 -0.40411,-1.99273 -1.12333,-2.71194 -0.71921,-0.71922 -1.69482,-1.12333 -2.71194,-1.12333 -1.01713,0 -1.99273,0.40411 -2.71195,1.12333 -0.71921,0.71921 -1.12332,1.69481 -1.12332,2.71194 0,1.01712 0.40411,1.99273 1.12332,2.71195 0.71922,0.71921 1.69482,1.12332 2.71195,1.12332 z"
         style="fill:#ffcbe9;fill-opacity:0.450574"
         id="path218" />
      <path
         d="m 133.04,115.10394 c 1.18385,0 2.31937,-0.47035 3.15648,-1.30746 0.83711,-0.83711 1.30746,-1.97263 1.30746,-3.15648 0,-1.18385 -0.47035,-2.31937 -1.30746,-3.15648 -0.83711,-0.83711 -1.97263,-1.30746 -3.15648,-1.30746 -1.18385,0 -2.31937,0.47035 -3.15648,1.30746 -0.83711,0.83711 -1.30746,1.97263 -1.30746,3.15648 0,1.18385 0.47035,2.31937 1.30746,3.15648 0.83711,0.83711 1.97263,1.30746 3.15648,1.30746 z"
         style="fill:#a0b4ff;fill-opacity:0.610395"
         id="path220" />
      <path
         d="m 121.84,116.35364 c 1.51527,0 2.96869,-0.60203 4.04015,-1.67349 1.07146,-1.07146 1.67349,-2.52488 1.67349,-4.04015 0,-1.51527 -0.60203,-2.96869 -1.67349,-4.04015 -1.07146,-1.07146 -2.52488,-1.67349 -4.04015,-1.67349 -1.51527,0 -2.96869,0.60203 -4.04015,1.67349 -1.07146,1.07146 -1.67349,2.52488 -1.67349,4.04015 0,1.51527 0.60203,2.96869 1.67349,4.04015 1.07146,1.07146 2.52488,1.67349 4.04015,1.67349 z"
         style="fill:#ff5300"
         id="path222" />
      <path
         d="m 110.64,115.09411 c 1.18124,0 2.31426,-0.46932 3.14953,-1.30458 0.83526,-0.83527 1.30458,-1.96829 1.30458,-3.14953 0,-1.18124 -0.46932,-2.31426 -1.30458,-3.14953 -0.83527,-0.83526 -1.96829,-1.30458 -3.14953,-1.30458 -1.18124,0 -2.31426,0.46932 -3.14953,1.30458 -0.83526,0.83527 -1.30458,1.96829 -1.30458,3.14953 0,1.18124 0.46932,2.31426 1.30458,3.14953 0.83527,0.83526 1.96829,1.30458 3.14953,1.30458 z"
         style="fill:#ffc4a1;fill-opacity:0.607709"
         id="path224" />
      <path
         d="m 99.44,115.60596 c 1.31699,0 2.58021,-0.52325 3.51146,-1.4545 0.93125,-0.93125 1.4545,-2.19447 1.4545,-3.51146 0,-1.31699 -0.52325,-2.58021 -1.4545,-3.51146 -0.93125,-0.93125 -2.19447,-1.4545 -3.51146,-1.4545 -1.316987,0 -2.580212,0.52325 -3.511462,1.4545 -0.931251,0.93125 -1.454496,2.19447 -1.454496,3.51146 0,1.31699 0.523245,2.58021 1.454496,3.51146 0.93125,0.93125 2.194475,1.4545 3.511462,1.4545 z"
         style="fill:#ff746d;fill-opacity:0.755407"
         id="path226" />
      <path
         d="m 88.24,115.15953 c 1.198592,0 2.348255,-0.47621 3.195787,-1.32374 0.847533,-0.84754 1.323739,-1.9972 1.323739,-3.19579 0,-1.19859 -0.476206,-2.34825 -1.323739,-3.19579 -0.847532,-0.84753 -1.997195,-1.32374 -3.195787,-1.32374 -1.198592,0 -2.348255,0.47621 -3.195787,1.32374 -0.847533,0.84754 -1.323739,1.9972 -1.323739,3.19579 0,1.19859 0.476206,2.34825 1.323739,3.19579 0.847532,0.84753 1.997195,1.32374 3.195787,1.32374 z"
         style="fill:#9e9bff;fill-opacity:0.625692"
         id="path228" />
      <path
         d="m 77.04,115.92113 c 1.400572,0 2.74397,-0.55645 3.734324,-1.54681 0.990354,-0.99035 1.546807,-2.33375 1.546807,-3.73432 0,-1.40057 -0.556453,-2.74397 -1.546807,-3.73432 -0.990354,-0.99036 -2.333752,-1.54681 -3.734324,-1.54681 -1.400572,0 -2.74397,0.55645 -3.734324,1.54681 -0.990354,0.99035 -1.546807,2.33375 -1.546807,3.73432 0,1.40057 0.556453,2.74397 1.546807,3.73432 0.990354,0.99036 2.333752,1.54681 3.734324,1.54681 z"
         style="fill:#ff458e;fill-opacity:0.854336"
         id="path230" />
      <path
         d="m 177.84,104.10584 c 1.23739,0 2.42428,-0.49162 3.29925,-1.36659 0.87497,-0.87497 1.36659,-2.06185 1.36659,-3.29925 0,-1.237395 -0.49162,-2.424277 -1.36659,-3.299248 -0.87497,-0.87497 -2.06186,-1.366593 -3.29925,-1.366593 -1.2374,0 -2.42428,0.491623 -3.29925,1.366593 -0.87497,0.874971 -1.36659,2.061853 -1.36659,3.299248 0,1.2374 0.49162,2.42428 1.36659,3.29925 0.87497,0.87497 2.06185,1.36659 3.29925,1.36659 z"
         style="fill:#f48eff;fill-opacity:0.66686"
         id="path232" />
      <path
         d="m 166.64,104.60626 c 1.37011,0 2.68428,-0.54435 3.65309,-1.51316 0.96882,-0.96882 1.51317,-2.28299 1.51317,-3.6531 0,-1.370107 -0.54435,-2.684283 -1.51317,-3.653095 -0.96881,-0.968812 -2.28298,-1.513161 -3.65309,-1.513161 -1.37011,0 -2.68428,0.544349 -3.6531,1.513161 -0.96881,0.968812 -1.51316,2.282988 -1.51316,3.653095 0,1.37011 0.54435,2.68428 1.51316,3.6531 0.96882,0.96881 2.28299,1.51316 3.6531,1.51316 z"
         style="fill:#5568ff;fill-opacity:0.817573"
         id="path234" />
      <path
         d="m 155.44,104.40069 c 1.31559,0 2.57748,-0.52269 3.50774,-1.45295 0.93026,-0.93026 1.45295,-2.19215 1.45295,-3.50774 0,-1.315591 -0.52269,-2.577476 -1.45295,-3.50774 -0.93026,-0.930263 -2.19215,-1.452953 -3.50774,-1.452953 -1.31559,0 -2.57748,0.52269 -3.50774,1.452953 -0.93026,0.930264 -1.45295,2.192149 -1.45295,3.50774 0,1.31559 0.52269,2.57748 1.45295,3.50774 0.93026,0.93026 2.19215,1.45295 3.50774,1.45295 z"
         style="fill:#ff6ee8;fill-opacity:0.753806"
         id="path236" />
      <path
         d="m 144.24,104.48345 c 1.33754,0 2.62047,-0.53142 3.56625,-1.4772 0.94578,-0.94578 1.47719,-2.22871 1.47719,-3.56625 0,-1.337537 -0.53141,-2.620472 -1.47719,-3.566254 -0.94578,-0.945781 -2.22871,-1.477191 -3.56625,-1.477191 -1.33754,0 -2.62047,0.53141 -3.56625,1.477191 -0.94579,0.945782 -1.4772,2.228717 -1.4772,3.566254 0,1.33754 0.53141,2.62047 1.4772,3.56625 0.94578,0.94578 2.22871,1.4772 3.56625,1.4772 z"
         style="fill:#ff64c2;fill-opacity:0.779165"
         id="path238" />
      <path
         d="m 133.04,104.06036 c 1.22533,0 2.40065,-0.48683 3.26709,-1.35327 0.86644,-0.86644 1.35327,-2.04176 1.35327,-3.26709 0,-1.225334 -0.48683,-2.400647 -1.35327,-3.26709 -0.86644,-0.866442 -2.04176,-1.353272 -3.26709,-1.353272 -1.22533,0 -2.40065,0.48683 -3.26709,1.353272 -0.86644,0.866443 -1.35327,2.041756 -1.35327,3.26709 0,1.22533 0.48683,2.40065 1.35327,3.26709 0.86644,0.86644 2.04176,1.35327 3.26709,1.35327 z"
         style="fill:#ca92ff;fill-opacity:0.653923"
         id="path240" />
      <path
         d="m 121.84,103.86289 c 1.17296,0 2.29805,-0.46602 3.12746,-1.29543 0.82941,-0.82941 1.29543,-1.95449 1.29543,-3.12746 0,-1.172965 -0.46602,-2.298046 -1.29543,-3.127457 -0.82941,-0.829411 -1.9545,-1.295435 -3.12746,-1.295435 -1.17296,0 -2.29805,0.466024 -3.12746,1.295435 -0.82941,0.829411 -1.29543,1.954492 -1.29543,3.127457 0,1.17297 0.46602,2.29805 1.29543,3.12746 0.82941,0.82941 1.9545,1.29543 3.12746,1.29543 z"
         style="fill:#ffc2a3;fill-opacity:0.599222"
         id="path242" />
      <path
         d="m 110.64,104.40596 c 1.31699,0 2.58021,-0.52325 3.51146,-1.4545 0.93125,-0.93125 1.4545,-2.19447 1.4545,-3.51146 0,-1.316987 -0.52325,-2.580212 -1.4545,-3.511462 -0.93125,-0.931251 -2.19447,-1.454496 -3.51146,-1.454496 -1.31699,0 -2.58021,0.523245 -3.51146,1.454496 -0.93125,0.93125 -1.4545,2.194475 -1.4545,3.511462 0,1.31699 0.52325,2.58021 1.4545,3.51146 0.93125,0.93125 2.19447,1.4545 3.51146,1.4545 z"
         style="fill:#ffd46d;fill-opacity:0.755407"
         id="path244" />
      <path
         d="m 99.44,104.27023 c 1.28099,0 2.50969,-0.50894 3.41549,-1.41474 0.9058,-0.9058 1.41474,-2.1345 1.41474,-3.41549 0,-1.280992 -0.50894,-2.509691 -1.41474,-3.41549 -0.9058,-0.905798 -2.1345,-1.414742 -3.41549,-1.414742 -1.280992,0 -2.509691,0.508944 -3.41549,1.414742 -0.905798,0.905799 -1.414742,2.134498 -1.414742,3.41549 0,1.28099 0.508944,2.50969 1.414742,3.41549 0.905799,0.9058 2.134498,1.41474 3.41549,1.41474 z"
         style="fill:#ffae7d;fill-opacity:0.714678"
         id="path246" />
      <path
         d="m 88.24,104.60113 c 1.368748,0 2.68162,-0.54381 3.649471,-1.51166 0.967851,-0.96785 1.51166,-2.28072 1.51166,-3.64947 0,-1.368748 -0.543809,-2.68162 -1.51166,-3.649471 -0.967851,-0.967851 -2.280723,-1.51166 -3.649471,-1.51166 -1.368748,0 -2.68162,0.543809 -3.649471,1.51166 -0.967851,0.967851 -1.51166,2.280723 -1.51166,3.649471 0,1.36875 0.543809,2.68162 1.51166,3.64947 0.967851,0.96785 2.280723,1.51166 3.649471,1.51166 z"
         style="fill:#557fff;fill-opacity:0.815952"
         id="path248" />
      <path
         d="m 77.04,104.54874 c 1.354853,0 2.654397,-0.53829 3.612422,-1.49632 0.958026,-0.95802 1.496314,-2.25757 1.496314,-3.61242 0,-1.354853 -0.538288,-2.654397 -1.496314,-3.612422 -0.958025,-0.958026 -2.257569,-1.496314 -3.612422,-1.496314 -1.354853,0 -2.654397,0.538288 -3.612422,1.496314 -0.958026,0.958025 -1.496314,2.257569 -1.496314,3.612422 0,1.35485 0.538288,2.6544 1.496314,3.61242 0.958025,0.95803 2.257569,1.49632 3.612422,1.49632 z"
         style="fill:#5cffae;fill-opacity:0.799469"
         id="path250" />
      <path
         d="m 177.84,93.159987 c 1.3048,0 2.55633,-0.518401 3.47896,-1.441031 0.92263,-0.92263 1.44103,-2.17416 1.44103,-3.478956 0,-1.304796 -0.5184,-2.556326 -1.44103,-3.478956 -0.92263,-0.92263 -2.17416,-1.441031 -3.47896,-1.441031 -1.3048,0 -2.55633,0.518401 -3.47896,1.441031 -0.92263,0.92263 -1.44103,2.17416 -1.44103,3.478956 0,1.304796 0.5184,2.556326 1.44103,3.478956 0.92263,0.92263 2.17416,1.441031 3.47896,1.441031 z"
         style="fill:#cb73ff;fill-opacity:0.741486"
         id="path252" />
      <path
         d="m 166.64,93.214288 c 1.3192,0 2.58454,-0.524122 3.51735,-1.456935 0.93282,-0.932813 1.45694,-2.198156 1.45694,-3.517353 0,-1.319197 -0.52412,-2.58454 -1.45694,-3.517353 -0.93281,-0.932813 -2.19815,-1.456935 -3.51735,-1.456935 -1.3192,0 -2.58454,0.524122 -3.51735,1.456935 -0.93282,0.932813 -1.45694,2.198156 -1.45694,3.517353 0,1.319197 0.52412,2.58454 1.45694,3.517353 0.93281,0.932813 2.19815,1.456935 3.51735,1.456935 z"
         style="fill:#6dffa6;fill-opacity:0.757943"
         id="path254" />
      <path
         d="m 155.44,91.472157 c 0.85718,0 1.67936,-0.34056 2.28548,-0.946677 0.60612,-0.606116 0.94668,-1.428302 0.94668,-2.28548 0,-0.857178 -0.34056,-1.679364 -0.94668,-2.28548 -0.60612,-0.606117 -1.4283,-0.946677 -2.28548,-0.946677 -0.85718,0 -1.67936,0.34056 -2.28548,0.946677 -0.60612,0.606116 -0.94668,1.428302 -0.94668,2.28548 0,0.857178 0.34056,1.679364 0.94668,2.28548 0.60612,0.606117 1.4283,0.946677 2.28548,0.946677 z"
         style="fill:#fff5e5;fill-opacity:0.320007"
         id="path256" />
      <path
         d="m 144.24,93.359987 c 1.35784,0 2.66024,-0.539475 3.62038,-1.49961 0.96013,-0.960135 1.49961,-2.262541 1.49961,-3.620377 0,-1.357836 -0.53948,-2.660242 -1.49961,-3.620377 -0.96014,-0.960135 -2.26254,-1.49961 -3.62038,-1.49961 -1.35784,0 -2.66024,0.539475 -3.62038,1.49961 -0.96013,0.960135 -1.49961,2.262541 -1.49961,3.620377 0,1.357836 0.53948,2.660242 1.49961,3.620377 0.96014,0.960135 2.26254,1.49961 3.62038,1.49961 z"
         style="fill:#5be9ff;fill-opacity:0.802994"
         id="path258" />
      <path
         d="m 133.04,93.483461 c 1.39058,0 2.7244,-0.552484 3.70769,-1.535774 0.98329,-0.98329 1.53577,-2.317105 1.53577,-3.707687 0,-1.390582 -0.55248,-2.724397 -1.53577,-3.707687 -0.98329,-0.98329 -2.31711,-1.535774 -3.70769,-1.535774 -1.39058,0 -2.7244,0.552484 -3.70769,1.535774 -0.98329,0.98329 -1.53577,2.317105 -1.53577,3.707687 0,1.390582 0.55248,2.724397 1.53577,3.707687 0.98329,0.98329 2.31711,1.535774 3.70769,1.535774 z"
         style="fill:#e74aff;fill-opacity:0.842192"
         id="path260" />
      <path
         d="m 121.84,93.236965 c 1.32521,0 2.59632,-0.526511 3.53339,-1.463577 0.93706,-0.937065 1.46358,-2.208177 1.46358,-3.533388 0,-1.325211 -0.52652,-2.596323 -1.46358,-3.533388 -0.93707,-0.937066 -2.20818,-1.463577 -3.53339,-1.463577 -1.32521,0 -2.59632,0.526511 -3.53339,1.463577 -0.93706,0.937065 -1.46357,2.208177 -1.46357,3.533388 0,1.325211 0.52651,2.596323 1.46357,3.533388 0.93707,0.937066 2.20818,1.463577 3.53339,1.463577 z"
         style="fill:#ff726a;fill-opacity:0.76487"
         id="path262" />
      <path
         d="m 110.64,92.759526 c 1.19859,0 2.34825,-0.476206 3.19579,-1.323739 0.84753,-0.847532 1.32374,-1.997195 1.32374,-3.195787 0,-1.198592 -0.47621,-2.348255 -1.32374,-3.195787 -0.84754,-0.847533 -1.9972,-1.323739 -3.19579,-1.323739 -1.19859,0 -2.34825,0.476206 -3.19579,1.323739 -0.84753,0.847532 -1.32374,1.997195 -1.32374,3.195787 0,1.198592 0.47621,2.348255 1.32374,3.195787 0.84754,0.847533 1.9972,1.323739 3.19579,1.323739 z"
         style="fill:#9bffe4;fill-opacity:0.625692"
         id="path264" />
      <path
         d="m 99.44,93.401131 c 1.36875,0 2.68162,-0.543809 3.64947,-1.51166 0.96785,-0.967851 1.51166,-2.280723 1.51166,-3.649471 0,-1.368748 -0.54381,-2.68162 -1.51166,-3.649471 -0.96785,-0.967851 -2.28072,-1.51166 -3.64947,-1.51166 -1.368748,0 -2.68162,0.543809 -3.649471,1.51166 -0.967851,0.967851 -1.51166,2.280723 -1.51166,3.649471 0,1.368748 0.543809,2.68162 1.51166,3.649471 0.967851,0.967851 2.280723,1.51166 3.649471,1.51166 z"
         style="fill:#55fffe;fill-opacity:0.815952"
         id="path266" />
      <path
         d="m 88.24,92.518768 c 1.134742,0 2.223162,-0.450838 3.025546,-1.253222 0.802384,-0.802384 1.253222,-1.890804 1.253222,-3.025546 0,-1.134742 -0.450838,-2.223162 -1.253222,-3.025546 C 90.463162,84.41207 89.374742,83.961232 88.24,83.961232 c -1.134742,0 -2.223162,0.450838 -3.025546,1.253222 -0.802384,0.802384 -1.253222,1.890804 -1.253222,3.025546 0,1.134742 0.450838,2.223162 1.253222,3.025546 0.802384,0.802384 1.890804,1.253222 3.025546,1.253222 z"
         style="fill:#ffcdaf;fill-opacity:0.560805"
         id="path268" />
      <path
         d="m 77.04,92.934722 c 1.245055,0 2.439283,-0.494665 3.31967,-1.375052 0.880387,-0.880387 1.375052,-2.074615 1.375052,-3.31967 0,-1.245055 -0.494665,-2.439283 -1.375052,-3.31967 -0.880387,-0.880387 -2.074615,-1.375052 -3.31967,-1.375052 -1.245055,0 -2.439283,0.494665 -3.31967,1.375052 -0.880387,0.880387 -1.375052,2.074615 -1.375052,3.31967 0,1.245055 0.494665,2.439283 1.375052,3.31967 0.880387,0.880387 2.074615,1.375052 3.31967,1.375052 z"
         style="fill:#ff998b;fill-opacity:0.675141"
         id="path270" />
      <path
         d="m 177.84,81.321 c 1.13533,0 2.22432,-0.451073 3.02712,-1.253876 0.80281,-0.802802 1.25388,-1.891789 1.25388,-3.027124 0,-1.135335 -0.45107,-2.224322 -1.25388,-3.027124 C 180.06432,73.210073 178.97533,72.759 177.84,72.759 c -1.13534,0 -2.22432,0.451073 -3.02712,1.253876 -0.80281,0.802802 -1.25388,1.891789 -1.25388,3.027124 0,1.135335 0.45107,2.224322 1.25388,3.027124 0.8028,0.802803 1.89178,1.253876 3.02712,1.253876 z"
         style="fill:#ffafeb;fill-opacity:0.561391"
         id="path272" />
      <path
         d="m 166.64,82.238378 c 1.37863,0 2.70097,-0.547734 3.67581,-1.52257 0.97483,-0.974835 1.52257,-2.297182 1.52257,-3.675808 0,-1.378626 -0.54774,-2.700973 -1.52257,-3.675808 -0.97484,-0.974836 -2.29718,-1.52257 -3.67581,-1.52257 -1.37863,0 -2.70097,0.547734 -3.67581,1.52257 -0.97483,0.974835 -1.52257,2.297182 -1.52257,3.675808 0,1.378626 0.54774,2.700973 1.52257,3.675808 0.97484,0.974836 2.29718,1.52257 3.67581,1.52257 z"
         style="fill:#5250ff;fill-opacity:0.827771"
         id="path274" />
      <path
         d="m 155.44,82.470725 c 1.44024,0 2.8217,-0.572215 3.8401,-1.590622 1.01841,-1.018407 1.59062,-2.399858 1.59062,-3.840103 0,-1.440245 -0.57221,-2.821696 -1.59062,-3.840103 -1.0184,-1.018407 -2.39986,-1.590622 -3.8401,-1.590622 -1.44025,0 -2.8217,0.572215 -3.8401,1.590622 -1.01841,1.018407 -1.59063,2.399858 -1.59063,3.840103 0,1.440245 0.57222,2.821696 1.59063,3.840103 1.0184,1.018407 2.39985,1.590622 3.8401,1.590622 z"
         style="fill:#ff2f5b;fill-opacity:0.903421"
         id="path276" />
      <path
         d="m 144.24,80.61244 c 0.94742,0 1.85617,-0.376415 2.5261,-1.046343 0.66992,-0.669929 1.04634,-1.578675 1.04634,-2.526097 0,-0.947422 -0.37642,-1.856168 -1.04634,-2.526097 -0.66993,-0.669928 -1.57868,-1.046343 -2.5261,-1.046343 -0.94742,0 -1.85617,0.376415 -2.5261,1.046343 -0.66993,0.669929 -1.04634,1.578675 -1.04634,2.526097 0,0.947422 0.37641,1.856168 1.04634,2.526097 0.66993,0.669928 1.57868,1.046343 2.5261,1.046343 z"
         style="fill:#d8e6ff;fill-opacity:0.390935"
         id="path278" />
      <path
         d="m 133.04,82.597573 c 1.47388,0 2.8876,-0.585581 3.9298,-1.627776 1.04219,-1.042194 1.62777,-2.455912 1.62777,-3.929797 0,-1.473885 -0.58558,-2.887603 -1.62777,-3.929797 -1.0422,-1.042195 -2.45592,-1.627776 -3.9298,-1.627776 -1.47389,0 -2.8876,0.585581 -3.9298,1.627776 -1.04219,1.042194 -1.62777,2.455912 -1.62777,3.929797 0,1.473885 0.58558,2.887603 1.62777,3.929797 1.0422,1.042195 2.45591,1.627776 3.9298,1.627776 z"
         style="fill:#ff1b23;fill-opacity:0.946117"
         id="path280" />
      <path
         d="m 121.84,82.700709 c 1.50124,0 2.94119,-0.596448 4.00273,-1.657983 1.06153,-1.061535 1.65798,-2.501488 1.65798,-4.002726 0,-1.501238 -0.59645,-2.941191 -1.65798,-4.002726 -1.06154,-1.061535 -2.50149,-1.657983 -4.00273,-1.657983 -1.50124,0 -2.94119,0.596448 -4.00273,1.657983 -1.06153,1.061535 -1.65798,2.501488 -1.65798,4.002726 0,1.501238 0.59645,2.941191 1.65798,4.002726 1.06154,1.061535 2.50149,1.657983 4.00273,1.657983 z"
         style="fill:#c309ff;fill-opacity:0.981559"
         id="path282" />
      <path
         d="m 110.64,82.321131 c 1.40057,0 2.74397,-0.556453 3.73432,-1.546807 0.99036,-0.990354 1.54681,-2.333752 1.54681,-3.734324 0,-1.400572 -0.55645,-2.74397 -1.54681,-3.734324 -0.99035,-0.990354 -2.33375,-1.546807 -3.73432,-1.546807 -1.40057,0 -2.74397,0.556453 -3.73432,1.546807 -0.99036,0.990354 -1.54681,2.333752 -1.54681,3.734324 0,1.400572 0.55645,2.74397 1.54681,3.734324 0.99035,0.990354 2.33375,1.546807 3.73432,1.546807 z"
         style="fill:#e4ff45;fill-opacity:0.854336"
         id="path284" />
      <path
         d="m 99.44,82.148736 c 1.35485,0 2.6544,-0.538288 3.61242,-1.496314 0.95803,-0.958025 1.49632,-2.257569 1.49632,-3.612422 0,-1.354853 -0.53829,-2.654397 -1.49632,-3.612422 -0.95802,-0.958026 -2.25757,-1.496314 -3.61242,-1.496314 -1.354853,0 -2.654397,0.538288 -3.612422,1.496314 -0.958026,0.958025 -1.496314,2.257569 -1.496314,3.612422 0,1.354853 0.538288,2.654397 1.496314,3.612422 0.958025,0.958026 2.257569,1.496314 3.612422,1.496314 z"
         style="fill:#845cff;fill-opacity:0.799469"
         id="path286" />
      <path
         d="m 88.24,81.734722 c 1.245055,0 2.439283,-0.494665 3.31967,-1.375052 0.880387,-0.880387 1.375052,-2.074615 1.375052,-3.31967 0,-1.245055 -0.494665,-2.439283 -1.375052,-3.31967 -0.880387,-0.880387 -2.074615,-1.375052 -3.31967,-1.375052 -1.245055,0 -2.439283,0.494665 -3.31967,1.375052 -0.880387,0.880387 -1.375052,2.074615 -1.375052,3.31967 0,1.245055 0.494665,2.439283 1.375052,3.31967 0.880387,0.880387 2.074615,1.375052 3.31967,1.375052 z"
         style="fill:#ffd48b;fill-opacity:0.675141"
         id="path288" />
      <path
         d="m 77.04,81.537417 c 1.192729,0 2.336767,-0.473876 3.180154,-1.317263 0.843387,-0.843387 1.317263,-1.987425 1.317263,-3.180154 0,-1.192729 -0.473876,-2.336767 -1.317263,-3.180154 -0.843387,-0.843387 -1.987425,-1.317263 -3.180154,-1.317263 -1.192729,0 -2.336767,0.473876 -3.180154,1.317263 -0.843387,0.843387 -1.317263,1.987425 -1.317263,3.180154 0,1.192729 0.473876,2.336767 1.317263,3.180154 0.843387,0.843387 1.987425,1.317263 3.180154,1.317263 z"
         style="fill:#9ddaff;fill-opacity:0.619585"
         id="path290" />
    </g>
  </g>
  <defs
     id="defs298">
    <clipPath
       id="p13cf89e179">
      <rect
         x="72"
         y="72"
         width="110.88"
         height="110.88"
         id="rect295" />
    </clipPath>
  </defs>
</svg>
